# xmcd
#
# Track frame offsets: 
#        150
#        25767
#        55067
#        80852
#        102095
#        127107
#        152955
#        167125
#        186757
#        219882
#
# Disc length: 3413 seconds
#
# Revision: 2
# Processed by: cddbd v1.5.2PL0 Copyright (c) Steve Scherf et al.
# Submitted via: ExactAudioCopy v0.99pb4
#
DISCID=830d530a
DTITLE=Various Artist - Jazz Goes Pop. Hits Of The 60's Vol. 1
DYEAR=2008
DGENRE=Jazz
TTITLE0=David 'Fathead' Newman - Hit The Road Jack
TTITLE1=Melvin Sparks - My Girl
TTITLE2=Vincent Herring - Norwegian Wood
TTITLE3=Etta Jones - What A Difference A Day Makes
TTITLE4='Papa' John DeFrancesco - House Of The Rising Sun
TTITLE5=David 'Fathead' Newman - Goldfinger
TTITLE6=Jimmy Ponder - Our Day Will Come
TTITLE7=Gloria Lynne - Shangri-La
TTITLE8=Rodney Jones and Soul Manifesto - Light My Fire
TTITLE9=Norman Simmons - Eleanor Rigby
EXTD=YEAR: 2008
EXTT0=
EXTT1=
EXTT2=
EXTT3=
EXTT4=
EXTT5=
EXTT6=
EXTT7=
EXTT8=
EXTT9=
PLAYORDER=
